<?xml version="1.0" encoding="UTF-8" standalone="no"?>
<!-- Generator: Gravit.io -->
<svg xmlns="http://www.w3.org/2000/svg" xmlns:xlink="http://www.w3.org/1999/xlink" style="isolation:isolate" viewBox="0 0 438.138 116" width="438.138" height="116"><defs><clipPath id="_clipPath_aGEcoBfgJcD3VopKFUpwoC6GuXUq9KY3"><rect width="438.138" height="116"/></clipPath></defs><g clip-path="url(#_clipPath_aGEcoBfgJcD3VopKFUpwoC6GuXUq9KY3)"><g><path d=" M 10.2 31 C 9.2 31.7 8.4 32 7.2 32 C 4.6 32 2.5 29.9 2.5 27.3 C 2.5 26.2 2.9 25 3.8 24 C 6.6 20.9 11.6 17.6 20.1 17.6 C 32.4 17.6 39.8 23.7 39.8 34.2 L 39.8 59.7 C 39.8 62.6 37.4 65 34.5 65 C 31.6 65 29.2 62.6 29.2 59.7 C 26.5 64 22.1 65.5 16.2 65.5 C 6.4 65.5 0 59.4 0 50.5 C 0 41.2 7.5 36.5 16.1 36.5 L 29.1 36.5 L 29.1 34.7 C 29.1 30.2 25.8 27.2 20 27.2 C 15.7 27.2 12.6 29.2 10.2 31 Z  M 29.2 47.6 L 29.2 44.8 L 17.5 44.8 C 13.1 44.8 10.7 46.9 10.7 50.5 C 10.7 54.3 13.4 56.6 19 56.6 C 24.3 56.6 29.2 53.2 29.2 47.6 Z " fill="rgb(27,117,188)"/><path d=" M 56.2 30.8 C 56.2 38.2 80.7 34.8 80.7 51.2 C 80.7 60.6 72.7 65.3 62.5 65.3 C 53.9 65.3 47.4 61.4 44.9 58.3 C 44.1 57.3 43.7 56.4 43.7 55.2 C 43.7 52.6 45.9 50.4 48.5 50.4 C 49.5 50.4 50.5 50.7 51.6 51.6 C 54.3 53.8 57.6 55.7 62.6 55.7 C 67.1 55.7 70 54.5 70 51.7 C 70 43.6 45.6 47.8 45.6 30.9 C 45.6 21.9 53.1 17.6 62.2 17.6 C 69.3 17.6 75.5 20.3 78.3 23.8 C 78.9 24.6 79.3 25.3 79.3 26.8 C 79.3 29.4 77.1 31.6 74.5 31.6 C 73.1 31.6 72.2 31 71.1 30.2 C 68.9 28.6 66.2 27 62.1 27 C 58.3 27 56.2 28.3 56.2 30.8 Z " fill="rgb(27,117,188)"/><path d=" M 95.2 30.8 C 95.2 38.2 119.7 34.8 119.7 51.2 C 119.7 60.6 111.7 65.3 101.5 65.3 C 92.9 65.3 86.4 61.4 83.9 58.3 C 83.1 57.3 82.7 56.4 82.7 55.2 C 82.7 52.6 84.9 50.4 87.5 50.4 C 88.5 50.4 89.5 50.7 90.6 51.6 C 93.3 53.8 96.6 55.7 101.6 55.7 C 106.1 55.7 109 54.5 109 51.7 C 109 43.6 84.6 47.8 84.6 30.9 C 84.6 21.9 92.1 17.6 101.2 17.6 C 108.3 17.6 114.5 20.3 117.3 23.8 C 117.9 24.6 118.3 25.3 118.3 26.8 C 118.3 29.4 116.1 31.6 113.5 31.6 C 112.1 31.6 111.2 31 110.1 30.2 C 107.9 28.6 105.2 27 101.1 27 C 97.4 27 95.2 28.3 95.2 30.8 Z " fill="rgb(27,117,188)"/><path d=" M 123.6 6.6 C 123.6 2 125.9 0 130 0 C 134.2 0 136.5 2 136.5 6.6 C 136.5 10.5 134.2 12.9 130 12.9 C 125.9 12.9 123.6 10.5 123.6 6.6 Z  M 135.3 59.7 C 135.3 62.7 132.9 65.1 129.9 65.1 C 126.9 65.1 124.5 62.7 124.5 59.7 L 124.5 23.7 C 124.5 20.7 126.9 18.3 129.9 18.3 C 132.9 18.3 135.3 20.7 135.3 23.7 L 135.3 59.7 Z " fill="rgb(27,117,188)"/><path d=" M 182.2 35 L 182.2 59.9 C 182.2 62.9 179.8 65.1 176.8 65.1 C 173.6 65.1 171.4 62.9 171.4 59.9 L 171.4 37 C 171.4 31.3 169.1 27.4 162.6 27.4 C 155.1 27.4 152.6 31.8 152.6 37.7 L 152.6 59.9 C 152.6 62.9 150.3 65.1 147.2 65.1 C 144.1 65.1 141.8 62.9 141.8 59.9 L 141.8 23.7 C 141.8 20.7 144.2 18.3 147.2 18.3 C 150.2 18.3 152.6 20.7 152.6 23.7 C 154.5 20.8 158.7 17.7 165.3 17.7 C 179 17.7 182.2 26.3 182.2 35 Z " fill="rgb(27,117,188)"/><path d=" M 207.9 17.7 C 224.7 17.7 227.8 30.6 227.8 37.5 C 227.8 41.2 227.8 45.5 221.7 45.5 L 197.1 45.5 C 197.1 52.7 202.2 56 208.7 56 C 213.1 56 216.2 54.5 218.6 52.9 C 219.7 52.2 220.5 51.8 221.8 51.8 C 224.4 51.8 226.5 53.9 226.5 56.5 C 226.5 58.1 225.7 59.4 224.8 60.2 C 223.1 61.8 217.8 65.7 208.8 65.7 C 195 65.7 186.4 58.2 186.4 41.6 C 186.4 26.2 194.4 17.7 207.9 17.7 Z  M 197.4 36.5 L 217.1 36.5 C 217.1 31.6 214.3 26.8 207.8 26.8 C 202.1 26.8 197.9 30.1 197.4 36.5 Z " fill="rgb(27,117,188)"/><path d=" M 246.469 67.695 C 246.432 68.092 246.506 68.511 246.7 68.9 C 247 69.3 253.6 80.8 267.5 92.4 C 280.3 103.1 302 115.9 332.6 116 C 332.7 116 332.8 116 332.9 116 C 363.9 116 385.6 104.7 398.4 95.4 C 412.4 85 418.9 74.7 419.2 74.3 C 419.8 73.3 419.5 72.1 418.6 71.5 C 417.6 70.9 416.4 71.2 415.8 72.1 C 415.6 72.5 390.1 112.1 332.9 112.1 C 332.8 112.1 332.7 112.1 332.6 112.1 C 276.5 112 250.5 67.4 250.2 67 C 249.962 66.524 249.566 66.207 249.101 66.081 C 249.733 65.532 250.1 64.928 250.1 64.3 C 250.1 53.5 248.7 52.1 248.2 51.6 L 248.1 51.5 L 248 51.4 C 247.6 51.2 247 50.9 246.4 50.9 C 243.6 50.9 237.8 53.6 236.7 55.3 C 235.9 56.4 236.1 58.4 236.5 61.9 C 237.4 67.7 238 69.1 240.6 69.1 L 240.6 69.1 C 242.182 69.1 244.52 68.563 246.469 67.695 Z " fill="rgb(247,148,29)"/><path d=" M 270.7 52.7 C 272.7 53.4 274.3 55.4 275.6 58.7 L 275.6 58.7 C 276.2 60.3 276.8 61.5 277.2 62.4 C 277.6 63.2 278 63.9 278.4 64.3 C 278.9 64.8 279 64.9 279 64.9 C 279 64.9 279.1 64.9 279.1 64.9 C 279.2 64.9 279.2 64.8 279.3 64.8 C 279.4 64.8 279.6 64.6 280.1 63.7 C 280.5 63 281 62 281.5 60.6 C 282 59.2 282.6 57.2 283.2 54.6 C 283.6 52.9 283.8 51.4 283.9 50.1 C 283.9 48.2 283.7 46.4 283.4 45 C 283.1 44.1 282.7 43.3 282.3 42.7 C 281.9 42.1 281.4 41.6 280.9 41.2 C 280.4 40.8 279.9 40.6 279.4 40.4 C 278.9 40.2 278.5 40.1 278.2 40.1 C 278.1 40.1 278.1 40.1 278 40.1 L 277.4 40.4 L 277.8 40 C 277.7 40 277.7 40 277.7 40 C 276.8 39.9 276.3 39.3 276.1 38.4 C 276 37.4 276.4 36.7 277.4 36.6 C 277.6 36.5 278.2 36.2 279.2 35.3 C 281.4 32.6 283 29.9 284.1 27.4 C 285.2 24.9 285.9 22.7 286.2 20.7 C 286.5 18.7 286.6 17 286.4 15.6 C 286.2 14.3 286.1 13.3 285.9 12.6 C 285.8 12.6 285.6 12.6 285.5 12.7 C 285.1 12.8 284.6 13.1 284.1 13.6 C 283.5 14 282.8 14.8 282 15.9 C 281.2 17 280.2 18.4 279.1 20.3 C 278 22.1 276.9 24.5 275.6 27.4 C 274.9 29.1 274.2 30.7 273.5 32.3 C 272.9 33.9 272.3 35.3 271.8 36.5 C 271.6 39.2 271.4 42.1 271.2 45 C 271.2 47.5 271 50.2 270.7 52.7 L 270.7 52.7 Z  M 265.8 70.2 C 265.7 70.2 265.6 70.2 265.5 70.2 C 264.6 70.1 263.8 69.6 263 68.7 C 262.3 67.8 261.6 66.4 261 64.5 C 260.4 62.7 259.9 60.2 259.3 57.1 C 258.8 54.3 258.5 51.2 258.4 47.7 C 258.3 44.3 258.3 40.7 258.4 37.2 C 258.5 33.7 258.7 30.1 259 26.7 C 259.3 23.3 259.6 20.2 259.9 17.6 C 260.2 14.9 260.5 12.8 260.8 11.1 C 261.3 8.4 261.5 8.3 261.7 8.2 C 262 8 262.7 7.7 264.8 7.5 C 266.3 7.4 268.4 7.5 271 7.9 C 272.4 8.2 273.3 8.8 273.7 9.7 C 274.1 10.6 274.2 11.8 274.1 13.4 C 274 14.9 273.8 16.9 273.4 19.2 C 273.1 20.8 272.9 22.8 272.7 24.9 C 274.4 21.2 276 18 277.7 15.5 C 280 11.9 282.1 9.8 284.2 9.1 C 285.2 8.7 286.2 8.7 287.3 9 C 289.4 9.2 291 9.9 291.9 11.1 C 292.8 12.3 293.2 13.8 293.2 15.6 C 293.1 17.3 292.7 19.2 291.9 21.3 C 291.1 23.3 290 25.4 288.8 27.4 C 288.1 28.7 287.3 30.2 286.3 31.8 C 285.9 32.4 285.3 33.3 284.4 34.5 C 283.9 35.2 283.4 35.8 282.8 36.4 C 283.4 36.3 284.1 36.4 284.9 36.5 C 285.8 36.7 286.9 37.2 288 37.9 C 289.1 38.6 290.2 39.8 291.3 41.4 C 292.2 42.7 292.8 44.3 293 46.2 C 293.3 48 293.3 50 293 52 C 292.7 54 292.2 56 291.4 58 C 290.6 60 289.6 61.8 288.4 63.3 C 287.2 64.9 285.8 66.1 284.2 67 C 282.6 67.9 280.9 68.4 279 68.2 L 278.5 68.2 L 278.5 68.1 C 277.4 67.9 276.3 67.2 275.4 66 C 274.4 64.7 273.3 62.5 272.2 59.7 C 271.6 58.1 271 57 270.3 56.3 C 270.1 58.5 270 60.4 269.9 62.2 C 269.8 64.2 269.7 65.7 269.6 66.8 C 269.5 67.3 269.3 67.8 269.1 68.2 C 268.8 68.7 268.5 69.1 267.9 69.3 C 267.3 70 266.5 70.2 265.8 70.2 L 265.8 70.2 Z " fill-rule="evenodd" fill="rgb(247,148,29)"/><path d=" M 319.396 41.83 L 315.2 46.9 C 313.4 49 311.8 51 310.3 52.8 C 307.8 56 306.3 56.9 305.5 57.1 C 305.5 56.7 305.4 56.4 305.4 56 C 305.3 55.5 305.3 54.9 305.2 54.4 C 305.1 53.8 305.1 53.4 305 53 C 304.9 52.7 304.9 52.5 304.9 52.4 C 305.1 48.1 305.3 44.4 305.6 41.4 C 306 41.3 306.6 41 307.3 40.7 C 308.2 40.2 309.2 39.7 310.3 38.9 C 313.9 36.2 315.6 33.1 315.2 29.6 L 315.2 29.4 L 315.1 29.3 C 315.1 29.2 315.1 29.1 315 29 C 314.9 28.6 314.7 28.2 314.4 27.7 C 314.1 27.2 313.6 26.6 312.9 26 C 312.3 25.4 311.4 24.9 310.4 24.5 C 309.4 24.1 308.2 23.8 306.7 23.7 C 306.3 23.7 305.6 23.9 304.7 24.2 C 303.8 24.5 302.8 25 301.8 25.8 C 300.8 26.6 299.8 27.6 298.9 28.9 C 298 30.2 297.4 31.8 297.1 33.6 C 296.9 34.8 296.6 36.2 296.3 37.8 C 296 39.4 295.7 41 295.5 42.8 C 295.3 44.6 295.1 46.4 295.1 48.3 C 295 50.2 295.2 52 295.5 53.8 C 295.6 54.6 296.1 55.4 296.8 56.2 C 297.5 57 298.3 57.7 299.2 58.4 C 300.1 59.1 301 59.7 302 60.1 C 302.9 60.4 303.6 60.6 304.2 60.6 L 304.2 60.6 L 304.2 60.6 C 304.4 60.6 304.5 60.5 304.7 60.5 L 304.9 60.5 C 305.1 60.5 305.3 60.5 305.5 60.5 C 305.7 60.5 305.9 60.5 306.1 60.4 C 308 60 310.3 58.3 313 55 C 314.6 53.1 316.2 51.2 317.9 49.1 L 318.902 47.889 C 318.918 49.344 319.024 50.722 319.3 52.1 C 319.6 53.5 320.1 55.1 320.7 56.6 C 321.5 58.5 322.7 60.1 324.3 61.2 C 325.9 62.3 327.4 63 329 63.4 C 329.7 63.5 330.3 63.6 330.8 63.4 C 331.3 63.3 331.7 63 332 62.7 C 332.3 62.3 332.5 61.9 332.4 61.4 C 332.3 60.9 332 60.5 331.5 60.1 C 331.3 60 331.1 59.9 330.9 59.7 C 330.8 59.6 330.7 59.5 330.6 59.4 C 330.7 58.7 330.9 57.9 331.2 56.7 C 331.5 55.5 331.8 54 332.3 52.3 C 332.8 50.6 333.4 48.7 334 46.8 C 334.6 44.8 335.4 42.8 336.2 40.8 C 337 39 337.8 37.2 338.7 35.4 C 339.6 33.6 340.6 31.8 341.7 30.2 C 342.8 28.6 344 27.1 345.2 25.8 C 346.1 24.8 347.1 24 348.1 23.4 C 348 24 347.8 24.6 347.7 25.4 C 347.4 27.5 347 29.9 346.6 33 C 346.2 36 345.9 39.1 345.7 42.2 C 345.5 45.3 345.5 48.3 345.6 51 C 345.8 53.7 346.2 56 346.8 57.5 C 347.2 58.6 347.9 59.3 349 59.6 C 350 59.9 351 59.9 352 59.8 C 353 59.7 353.8 59.4 354.6 59 C 355.5 58.5 355.9 57.9 355.8 57.2 C 355.8 56.6 355.7 55.8 355.7 54.7 C 355.6 53.6 355.7 52.4 355.7 50.9 C 356 50.1 356.5 49.1 357.1 47.8 C 357.7 46.5 358.6 45 359.6 43.6 C 360.2 42.8 360.9 42 361.6 41.1 C 362.4 40.2 363.2 39.5 364 38.8 C 364.9 38.2 365.8 37.7 366.7 37.3 C 367.4 37.1 368.1 36.9 368.9 36.9 C 368.6 37.7 368.3 38.5 368.1 39.6 C 367.8 41 367.5 42.7 367.1 44.7 C 366.7 46.7 366.4 48.6 366.2 50.3 C 366 52 365.8 53.7 365.8 55.2 C 365.8 56.8 365.9 58.3 366.2 59.8 C 366.5 61.3 367 62.8 367.6 64.3 C 367.8 64.8 368.1 65.3 368.6 65.7 L 368.8 65.9 L 368.9 66 C 369 66.1 369.3 66.2 369.7 66.5 C 370.2 66.8 370.8 67.1 371.6 67.4 C 372.2 67.5 372.9 67.6 373.5 67.6 L 373.5 67.6 C 375.1 67.6 376.6 67.1 378.3 65.8 L 378.5 65.6 C 380.6 63.4 382.6 61.4 384.4 59.7 C 386.2 58 388.4 56.2 390.9 54.1 C 393.4 52.1 396.1 50.1 399 48.1 C 401.6 46.3 404.4 44.6 407.5 43 C 410.5 41.4 413.7 40.2 416.9 39.4 C 420.1 38.6 423.3 38.3 426.5 38.5 C 429.6 38.7 432.7 39.7 435.5 41.5 C 435.9 41.7 436.3 41.8 436.8 41.7 C 437.3 41.6 437.6 41.3 437.8 41 C 438.1 40.6 438.2 40.2 438.1 39.7 C 438 39.3 437.7 38.9 437.3 38.6 L 437.3 38.6 C 431.4 35 424.5 34.1 416.7 36 C 410.6 37.4 404 40.5 396.9 45.3 C 394.1 47.2 391.4 49.2 389 51.2 C 386.5 53.2 384.4 55.1 382.5 56.8 C 380.7 58.5 379.1 60 378 61.2 C 377.1 62.1 376.5 62.7 376.2 63.1 C 376.1 62.5 376 61.8 376 61 C 375.9 59.7 375.8 58.4 375.8 57 C 375.7 55.6 375.7 54.1 375.8 52.5 C 375.8 51 375.9 49.5 376.1 48.1 C 376.2 47.1 376.4 46.1 376.6 45.3 C 376.8 44.5 377.1 43.7 377.4 43.1 L 377.5 42.9 C 377.5 42.1 377.5 41.4 377.4 40.7 C 377.3 40.1 377.2 39.5 377 38.8 C 376.8 38.2 376.6 37.5 376.2 37 C 376.1 36.8 376 36.6 375.9 36.5 C 374.6 34.9 372.7 33.8 370.2 33.4 C 367.4 33.1 364.8 33.9 362.3 35.7 C 360.4 37.1 358.5 39.1 356.8 41.7 C 356.5 42.1 356.2 42.5 355.9 42.9 C 356 41.4 356.1 39.9 356.2 38.4 C 356.4 36.2 356.6 34.1 356.8 32.1 C 357.1 30.1 357.3 28.3 357.6 26.8 C 357.8 25.3 358.2 24.2 358.5 23.5 L 358.6 23.3 L 358.6 23.1 C 358.4 22.3 358.1 21.5 357.7 20.8 C 357.3 20.2 356.8 19.6 356.2 19.1 C 355.5 18.6 354.6 18.3 353.5 18.3 L 352.9 18.3 C 348.7 18.4 344.6 20.8 340.9 25.4 C 338.2 28.9 335.6 33.6 333.2 39.5 C 332 42.5 330.9 45.4 330.1 48.1 C 329.7 49.4 329.3 50.6 329 51.7 C 329 51.3 329 50.9 329 50.4 C 329.1 48.4 329.2 46.3 329.4 44.2 C 329.6 42.1 329.8 40.1 330.2 38.2 C 330.6 36.4 331 34.9 331.6 33.8 L 331.7 33.6 L 331.6 33.4 C 331.3 32.8 330.9 32.2 330.4 31.7 C 329.9 31.2 329.4 30.8 328.7 30.5 C 328.1 30.2 327.2 30 326.1 30 L 324.8 30 C 324.2 30 323.6 30.2 323 30.7 C 322.4 31.1 321.9 31.8 321.4 32.8 C 320.9 33.8 320.5 35.2 320.2 37 C 319.859 38.703 319.591 40.334 319.396 41.83 Z  M 310.3 28.8 C 310.1 28.8 310 28.8 309.8 28.9 C 309.5 29 309.3 29.2 309.2 29.4 C 309 29.7 308.9 29.9 308.8 30 L 308.8 30 C 307.8 31.9 306.9 34.4 306.3 37.3 C 306.7 37.1 307.1 36.9 307.6 36.6 C 308.4 36.2 309.1 35.6 309.8 34.9 C 310.5 34.2 311.1 33.5 311.5 32.6 C 311.9 31.8 312.1 30.9 311.9 29.9 L 311.9 29.7 C 311.3 29 310.9 28.8 310.6 28.7 C 310.5 28.8 310.4 28.8 310.3 28.8 L 310.3 28.8 L 310.3 28.8 Z " fill-rule="evenodd" fill="rgb(247,148,29)"/></g></g></svg>